# xmcd
#
# Track frame offsets:
#	150
#	24543
#	47433
#	68900
#	87118
#	105428
#	127613
#	151508
#	174338
#	199910
#
# Disc length: 2923 seconds
#
# Revision: 1
# Processed by: cddbd v1.4PL0 Copyright (c) Steve Scherf et al.
# Submitted via: EasyCDDAExtractor 5.0.7
#
DISCID=690b690a
DTITLE=Various Artist - Da Vu Trong Mat Em
DYEAR=1900
DGENRE=
TTITLE0=Kieu Nga - Trang the
TTITLE1=Elvis Phuong - Ngay do
TTITLE2=Nhu Mai - Mua
TTITLE3=Ngoc Lan - Lam sao em khoc
TTITLE4=Ngoc Minh - Khuc nhac muon doi
TTITLE5=Kieu Nga - Sa mac tuoi tre
TTITLE6=Thuy Vi - Yeu mot minh
TTITLE7=Tuan Anh - Yeu nhau mai
TTITLE8=Ngoc Lan - Suoi nuoc mat
TTITLE9=Ngoc Minh - Bai tango cho em
EXTD=
EXTT0=
EXTT1=
EXTT2=
EXTT3=
EXTT4=
EXTT5=
EXTT6=
EXTT7=
EXTT8=
EXTT9=
PLAYORDER=
